<?xml version="1.0" encoding="UTF-8"?>
<svg width="24px" height="24px" viewBox="0 0 24 24" version="1.1" xmlns="http://www.w3.org/2000/svg" xmlns:xlink="http://www.w3.org/1999/xlink">
    <title>编组 19</title>
    <g id="home" stroke="none" stroke-width="1" fill="none" fill-rule="evenodd">
        <g id="menu---已登录" transform="translate(-20.000000, -511.000000)">
            <g id="编组-19" transform="translate(20.000000, 511.000000)">
                <circle id="椭圆形备份-4" fill="#D0D0D0" cx="12" cy="12" r="12"></circle>
                <path d="M15.3091806,15.2702161 C17.1906903,15.2702161 18.7158065,16.795571 18.7158065,18.6768419 L18.7162084,21.9459273 C17.6682862,22.6549464 16.5023308,23.202706 15.2539654,23.5535827 L8.74603463,23.5535827 C7.52789321,23.211201 6.38821967,22.6813545 5.36011195,21.9971411 L5.36,18.6768419 C5.36,16.795571 6.88535484,15.2702161 8.76662581,15.2702161 L15.3091806,15.2702161 Z M12.0144381,6.32 C14.0045606,6.32 15.6175219,7.9332 15.6175219,9.92308387 C15.6175219,11.9129677 14.0045606,13.5261677 12.0144381,13.5261677 C10.0245542,13.5261677 8.4115929,11.9129677 8.4115929,9.92308387 C8.4115929,7.9332 10.0245542,6.32 12.0144381,6.32 Z" id="形状结合" fill="#FFFFFF"></path>
                <circle id="椭圆形备份-4" stroke="#D0D0D0" cx="12" cy="12" r="11.5"></circle>
            </g>
        </g>
    </g>
</svg>