<?xml version="1.0" encoding="UTF-8"?>
<svg width="24px" height="24px" viewBox="0 0 24 24" version="1.1" xmlns="http://www.w3.org/2000/svg" xmlns:xlink="http://www.w3.org/1999/xlink">
    <title>个人中心</title>
    <g id="页面-1" stroke="none" stroke-width="1" fill="none" fill-rule="evenodd">
        <g id="说明" transform="translate(-909.000000, -328.000000)">
            <g id="个人中心" transform="translate(909.000000, 328.000000)">
                <rect id="矩形" x="0" y="0" width="24" height="24"></rect>
                <g id="个人中心---默认">
                    <rect id="矩形" x="0" y="0" width="23.2490697" height="23.2490697"></rect>
                    <g id="编组" transform="translate(2.620000, 1.800000)" stroke="#000000" stroke-width="1.5">
                        <path d="M14.2631543,5.11644527 C14.2631543,7.85158583 12.0461024,10.0689659 9.31063369,10.0689659 C6.57549314,10.0689659 4.35844123,7.85158583 4.35844123,5.11644527 C4.35844123,2.38130471 6.57549314,0.163924691 9.31063369,0.163924691 C12.0461024,0.163924691 14.2631543,2.38130471 14.2631543,5.11644527 Z" id="Stroke-1"></path>
                        <path d="M0.163957502,20.3193448 L0.163957502,18.2483026 C0.163957502,15.662453 2.26059236,13.5658181 4.84644201,13.5658181 L13.8393322,13.5658181 C16.4255099,13.5658181 18.5218167,15.662453 18.5218167,18.2483026 L18.5218167,20.3193448" id="Stroke-3" stroke-linecap="round"></path>
                    </g>
                </g>
            </g>
        </g>
    </g>
</svg>