<svg xmlns="http://www.w3.org/2000/svg" viewBox="0 0 376.92 44"><defs><style>.cls-1{fill:#fff;fill-opacity:0;}</style></defs><g id="图层_2" data-name="图层 2"><g id="图层_1-2" data-name="图层 1"><rect id="矩形" class="cls-1" width="376.92" height="44"/><path d="M209.11,35.58,200.18,1.4h4.37l7.31,29.48H212l7.3-29.48h5.4L232,30.88h.09L239.44,1.4h4.14l-9,34.18h-5.26L221.9,5.72h-.09l-7.39,29.86Z"/><path d="M258.14,10.19a9.66,9.66,0,0,1,6.69,2.32,8.73,8.73,0,0,1,2.84,6.88V35.58H263.9V32.23h-.14a8,8,0,0,1-3.11,2.56A11.41,11.41,0,0,1,255.39,36a8.86,8.86,0,0,1-5.95-2,6.9,6.9,0,0,1-2.56-5.58,7.25,7.25,0,0,1,2.84-6,11.05,11.05,0,0,1,7.11-2.19,18.55,18.55,0,0,1,6.84,1.26V19.53A5.54,5.54,0,0,0,262,15.21a5.7,5.7,0,0,0-4-1.4,9.65,9.65,0,0,0-7.49,3.63L248,14.74a12.38,12.38,0,0,1,4.27-3.25A13.51,13.51,0,0,1,258.14,10.19Zm-7.07,18a3.83,3.83,0,0,0,1.39,3.11,5.64,5.64,0,0,0,3.72,1.12,8.16,8.16,0,0,0,5.21-1.68,5.54,5.54,0,0,0,2.28-4.6v-1.3a15.26,15.26,0,0,0-6.74-1.4,6.8,6.8,0,0,0-4.05,1.12A4.22,4.22,0,0,0,251.07,28.19Z"/><path d="M287,10.65v3.44h-6.74V27a9.37,9.37,0,0,0,.55,3.82,3,3,0,0,0,2.93,1.53,9.4,9.4,0,0,0,3-.6l.6,3.44a12,12,0,0,1-4.56.79q-6.56,0-6.56-7.54V14.09h-5V10.65h5V2.93h4v7.72Z"/><path d="M302.83,10.19A12.53,12.53,0,0,1,308,11.3a11.54,11.54,0,0,1,3.82,2.75l-2.52,2.51a8.51,8.51,0,0,0-2.65-1.86,8.87,8.87,0,0,0-3.86-.89,7.7,7.7,0,0,0-6,2.42A9.77,9.77,0,0,0,294.65,23a10.26,10.26,0,0,0,2.09,6.84,7.38,7.38,0,0,0,5.95,2.51A9.12,9.12,0,0,0,310,28.6l2.46,2.47a10.51,10.51,0,0,1-3.81,3.4A12.63,12.63,0,0,1,302.51,36a11.44,11.44,0,0,1-8.79-3.54Q290.47,29,290.46,23a12.9,12.9,0,0,1,3.35-9.25A11.83,11.83,0,0,1,302.83,10.19Z"/><path d="M316.69,0h4V14.14h.14A10.06,10.06,0,0,1,324,11.4a9.68,9.68,0,0,1,4.7-1.21,8.45,8.45,0,0,1,8.84,8.88V35.58h-4V20.19a6.93,6.93,0,0,0-1.54-4.7,4.73,4.73,0,0,0-3.77-1.68A7.15,7.15,0,0,0,323,16.14a7.82,7.82,0,0,0-2.33,5.67V35.58h-4Z"/><path d="M373.71,1.4V25.67h3.21v3.54h-3.21v6.37h-4V29.21H355.2V25.67L369.58,1.4ZM359.62,25.67h10.09V7.91h-.13Z"/><polygon points="19.71 1.27 25.82 1.27 25.82 35.58 19.71 35.58 19.71 21.29 6.11 21.29 6.11 35.58 0 35.58 0 1.27 6.11 1.27 6.11 15.18 19.71 15.18 19.71 1.27"/><polygon points="97.22 22.68 82.38 1.27 77.51 1.27 77.51 35.58 83.62 35.58 83.62 14.06 98.53 35.58 103.33 35.58 103.33 1.27 97.22 1.27 97.22 22.68"/><path d="M129.17.8a17.6,17.6,0,1,0,17.6,17.6A17.6,17.6,0,0,0,129.17.8Zm0,29.09A11.49,11.49,0,1,1,140.66,18.4,11.49,11.49,0,0,1,129.17,29.89Z"/><path d="M171.37,23.07A11.16,11.16,0,0,0,168,1.27H155V35.58h6.11V20.31l12.73,15.27h7.94Zm-10.24-5.58V7.38h6.8a5.06,5.06,0,0,1,0,10.11Z"/><path d="M51.66.8a17.6,17.6,0,1,0,17.6,17.6A17.6,17.6,0,0,0,51.66.8Zm0,29.09A11.49,11.49,0,1,1,63.15,18.4,11.49,11.49,0,0,1,51.66,29.89Z"/></g></g></svg>