<?xml version="1.0" encoding="UTF-8"?>
<svg id="_图层_2" data-name="图层 2" xmlns="http://www.w3.org/2000/svg" viewBox="0 0 267 44">
  <defs>
    <style>
      .cls-1 {
        fill: rgba(255, 255, 255, 0);
      }
    </style>
  </defs>
  <g id="_图层_1-2" data-name="图层 1">
    <g id="_页面-1" data-name="页面-1">
      <g id="honor90">
        <rect id="_矩形" data-name="矩形" class="cls-1" y="0" width="267" height="44"/>
        <rect id="_矩形-2" data-name="矩形" class="cls-1" y="0" width="267" height="34"/>
        <path id="_形状" data-name="形状" d="M199.65,33h-4.31l8.31-14.05v-.05c-.94,.82-2.66,1.23-5.06,1.23-2.58,.09-5.07-.92-6.87-2.76-1.83-1.91-2.81-4.48-2.72-7.13-.08-2.8,1.04-5.5,3.07-7.43,2.03-1.9,4.72-2.91,7.5-2.81,2.84-.12,5.6,.95,7.61,2.95,1.89,1.97,2.9,4.61,2.8,7.33-.08,2.15-.59,4.25-1.5,6.2-.61,1.46-1.82,3.81-3.6,7.03l-5.24,9.48Zm-6.73-22.9c-.09,1.78,.5,3.52,1.67,4.87,1.19,1.21,2.84,1.85,4.54,1.75,1.83,.09,3.62-.53,5.01-1.71,1.32-1.27,2.03-3.05,1.93-4.88,.11-1.82-.53-3.61-1.76-4.96-1.24-1.22-2.95-1.86-4.69-1.76-1.76-.08-3.49,.53-4.8,1.71-1.32,1.31-2.01,3.13-1.9,4.98h0Z"/>
        <path id="_形状-2" data-name="形状" d="M233.91,23.71c.02,2.79-1.03,5.48-2.91,7.51-1.86,1.86-4.4,2.87-7.02,2.77-2.61,.1-5.13-.91-6.98-2.77-1.89-2.05-2.93-4.75-2.91-7.55-.11-4.45-.11-8.89,0-13.33-.03-2.81,1.02-5.53,2.91-7.59,3.97-3.69,10.08-3.67,14.03,.05,1.89,2.05,2.93,4.75,2.91,7.55,.09,4.47,.08,8.93-.03,13.36Zm-15.97-.58c.18,4.92,2.2,7.38,6.08,7.38,1.7,.11,3.35-.59,4.46-1.9,1.11-1.59,1.68-3.51,1.63-5.46,.12-4.07,.12-8.17,0-12.28,.04-1.95-.54-3.86-1.66-5.44-1.09-1.34-2.75-2.07-4.46-1.97-3.88,0-5.9,2.46-6.08,7.38-.12,4.12-.11,8.22,.04,12.29Z"/>
        <polygon id="_路径" data-name="路径" points="19.09 0 25 0 25 33 19.09 33 19.09 19.26 5.92 19.26 5.92 33 0 33 0 0 5.92 0 5.92 13.38 19.09 13.38 19.09 0"/>
        <polygon id="_路径-2" data-name="路径" points="93.08 20.6 78.71 0 74 0 74 33 79.91 33 79.91 12.31 94.35 33 99 33 99 0 93.08 0 93.08 20.6"/>
        <path id="_形状-3" data-name="形状" d="M123.5,0C116.83,0,110.81,4.02,108.26,10.19c-2.55,6.17-1.14,13.26,3.58,17.98,4.72,4.72,11.82,6.13,17.98,3.58,6.17-2.55,10.19-8.57,10.19-15.24C140,7.39,132.61,0,123.5,0h0Zm0,27.28c-4.36,0-8.29-2.62-9.96-6.65s-.75-8.66,2.33-11.75c3.08-3.08,7.72-4.01,11.75-2.34s6.65,5.6,6.65,9.96c0,5.95-4.82,10.77-10.77,10.78h0Z"/>
        <path id="_形状-4" data-name="形状" d="M163.27,20.97c4.91-1.59,7.95-6.63,7.17-11.87C169.66,3.86,165.28,0,160.13,0h-12.13V33h5.71v-14.68l11.88,14.68h7.4l-9.73-12.03Zm-9.56-5.36V5.88h6.35c2.61,0,4.72,2.18,4.72,4.86s-2.11,4.86-4.72,4.86h-6.35Z"/>
        <path id="_形状-5" data-name="形状" d="M49.5,0C40.39,0,33,7.39,33,16.5s7.39,16.5,16.5,16.5,16.5-7.39,16.5-16.5c0-4.38-1.74-8.57-4.83-11.67C58.07,1.74,53.88,0,49.5,0h0Zm0,27.28c-5.95,0-10.78-4.83-10.78-10.78s4.83-10.78,10.78-10.78,10.78,4.83,10.78,10.78c0,2.86-1.13,5.6-3.15,7.62-2.02,2.02-4.76,3.16-7.62,3.15h0Z"/>
        <path id="_形状-6" data-name="形状" d="M261.36,17h-13.72c-3.11,0-5.63-2.43-5.64-5.42V6.41c0-2.99,2.53-5.41,5.64-5.41h13.72c3.11,0,5.63,2.42,5.64,5.41v5.18c-.01,2.99-2.53,5.4-5.64,5.41h0Zm-13.72-15.18c-2.67,0-4.83,2.08-4.83,4.64v5.18c0,2.56,2.16,4.64,4.83,4.64h13.72c2.67,0,4.83-2.08,4.83-4.64V6.41c-.03-2.54-2.18-4.59-4.83-4.59h-13.72Z"/>
        <path id="_路径-3" data-name="路径" d="M250.41,13c-1.23,.03-2.28-1.01-2.41-2.38h.92c.06,.39,.24,.75,.5,1.01,.28,.29,.65,.45,1.03,.44,.42,.02,.84-.16,1.14-.5,.32-.38,.48-.9,.46-1.42,.02-.54-.16-1.06-.5-1.44-.28-.29-.65-.45-1.03-.44-.53-.02-1.04,.2-1.42,.61h-.84l.4-4.86h3.81v.95h-3l-.25,2.84c.4-.33,.89-.49,1.38-.46,.63-.01,1.24,.27,1.68,.77,.47,.52,.73,1.25,.72,2,.04,.79-.22,1.55-.71,2.12-.5,.54-1.18,.83-1.88,.79Z"/>
        <path id="_路径-4" data-name="路径" d="M258.27,13c-1.17,.05-2.31-.4-3.13-1.23-.8-.9-1.21-2.08-1.13-3.29-.07-1.23,.39-2.44,1.27-3.31,.86-.79,2-1.21,3.16-1.16,.65-.01,1.29,.11,1.89,.36,.48,.19,.9,.49,1.24,.89l-.73,.73c-.26-.3-.58-.54-.94-.71-.46-.2-.96-.29-1.45-.28-.86-.02-1.69,.32-2.3,.94-.66,.7-1,1.64-.94,2.6-.04,.94,.28,1.86,.9,2.57,.6,.64,1.46,.98,2.33,.94,.56,0,1.12-.09,1.64-.27,.35-.1,.66-.32,.87-.62v-1.84h-2.38v-.94h3.44v3.17c-.34,.45-.79,.8-1.32,1.01-.76,.33-1.58,.48-2.41,.45h0Z"/>
      </g>
    </g>
  </g>
</svg>