<svg xmlns="http://www.w3.org/2000/svg" viewBox="0 0 557.07 44"><g id="图层_2" data-name="图层 2"><g id="图层_1-2" data-name="图层 1"><path d="M198.42,1.34l11.73,22h.09l11.81-22h4.37V34.1h-4V8.38h-.09L211.17,29.65h-2L198,8.38h-.09V34.1h-4V1.34Z"/><path d="M242.33,10.48a9.36,9.36,0,0,1,6.15,1.91,7.15,7.15,0,0,1,2.5,5.8V34.1h-3.83V31.16h-.05a9,9,0,0,1-7.35,3.34,8.5,8.5,0,0,1-5.57-1.78,6.72,6.72,0,0,1-2.46-5.5,6.66,6.66,0,0,1,2.77-5.6,10.73,10.73,0,0,1,6.68-2,15.94,15.94,0,0,1,6,1.11V18.41a4.26,4.26,0,0,0-1.27-3.32A5.13,5.13,0,0,0,242.33,14a8,8,0,0,0-6.64,3.21l-2.58-2.4A10.32,10.32,0,0,1,236.58,12,12.08,12.08,0,0,1,242.33,10.48ZM235.74,27q0,4.05,4.41,4.05a8.53,8.53,0,0,0,5-1.45,4.2,4.2,0,0,0,2-3.32V24.12a12.35,12.35,0,0,0-5.89-1.3,6.76,6.76,0,0,0-3.92,1A3.62,3.62,0,0,0,235.74,27Z"/><path d="M266.36,44a13.65,13.65,0,0,1-9.94-4l2.1-2.85a10.71,10.71,0,0,0,7.84,3.34q4,0,5.89-2.18a7,7,0,0,0,1.47-4.64V30.54h-.14A7.28,7.28,0,0,1,270.73,33a10.49,10.49,0,0,1-12.17-1.87,12,12,0,0,1-3.12-8.69,12.36,12.36,0,0,1,3.08-8.56,10,10,0,0,1,7.75-3.43A9.42,9.42,0,0,1,271,11.72a8.22,8.22,0,0,1,2.95,2.68h0V10.92h3.61V33.7a9.86,9.86,0,0,1-2.92,7.56C272.68,43.09,269.93,44,266.36,44Zm-6.91-21.71a9.14,9.14,0,0,0,2,6.15,6,6,0,0,0,4.81,2.28A7.32,7.32,0,0,0,272,28.44a8.15,8.15,0,0,0,2-5.75,9.13,9.13,0,0,0-2.27-6.55A6.9,6.9,0,0,0,266.52,14a6.31,6.31,0,0,0-5.08,2.39A9,9,0,0,0,259.45,22.29Z"/><path d="M283,3a2.69,2.69,0,0,1,.69-1.85,2.35,2.35,0,0,1,1.85-.78,2.52,2.52,0,0,1,1.92.8A2.58,2.58,0,0,1,288.12,3a2.55,2.55,0,0,1-.74,1.8,2.53,2.53,0,0,1-3.65,0A2.55,2.55,0,0,1,283,3Zm.67,7.93h3.83V34.1h-3.83Z"/><path d="M303.85,10.48a11.11,11.11,0,0,1,5.09,1.24,11.74,11.74,0,0,1,3.56,2.81L310,16.94a8.66,8.66,0,0,0-2.36-2,7.46,7.46,0,0,0-3.75-1,6.71,6.71,0,0,0-5.28,2.3,9,9,0,0,0-2,6.17,9.2,9.2,0,0,0,2,6.24A6.84,6.84,0,0,0,304,31a6.69,6.69,0,0,0,3.84-1.21,8.89,8.89,0,0,0,2.4-2.45l2.81,2.05a10.08,10.08,0,0,1-3.25,3.41,11.53,11.53,0,0,1-14.11-1.69,12.15,12.15,0,0,1-3.19-8.72,12.11,12.11,0,0,1,3.14-8.58A10.69,10.69,0,0,1,303.85,10.48Z"/><path d="M325.92,34.64A10.19,10.19,0,0,1,315.62,26h3.83a7.46,7.46,0,0,0,2.15,3.56A6.32,6.32,0,0,0,326,31.16,6.88,6.88,0,0,0,331,29.33,7,7,0,0,0,333,24a6.52,6.52,0,0,0-2.1-5.2,6.76,6.76,0,0,0-4.63-1.6,8.6,8.6,0,0,0-6.16,2.23h-3.43l1.7-18.1h16.18V4.73h-12.8L320.7,15.47a7.62,7.62,0,0,1,2.41-1.16,11.78,11.78,0,0,1,3.61-.58A10.14,10.14,0,0,1,334,16.54a9.69,9.69,0,0,1,3,7.31,10.4,10.4,0,0,1-3,7.89A11.2,11.2,0,0,1,325.92,34.64Z"/><path d="M356.68,1.34h4V21.71q0,9.27,8.6,9.27t8.61-9.27V1.34h4V22.51q0,6-3.28,9.07t-9.34,3.06q-6.06,0-9.34-3.06t-3.27-9.07Z"/><path d="M388.46,34.1V0h3.84V34.1Z"/><path d="M410.53,10.92v3.3h-6.2v11.9a9.28,9.28,0,0,0,.45,3.53A2.72,2.72,0,0,0,407.5,31a8.86,8.86,0,0,0,2.85-.45l.54,3.17a11.78,11.78,0,0,1-4.24.75q-6.15,0-6.15-6.95V14.22h-4.64v-3.3h4.64V3.74h3.83v7.18Z"/><path d="M413.83,3a2.69,2.69,0,0,1,.69-1.85,2.35,2.35,0,0,1,1.85-.78,2.52,2.52,0,0,1,1.92.8A2.58,2.58,0,0,1,419,3a2.55,2.55,0,0,1-.74,1.8,2.54,2.54,0,0,1-3.66,0A2.54,2.54,0,0,1,413.83,3Zm.67,7.93h3.83V34.1H414.5Z"/><path d="M450.92,10.48a7.86,7.86,0,0,1,8.16,8.24V34.1h-3.84V19.88a6.61,6.61,0,0,0-1.31-4.34A4.28,4.28,0,0,0,450.47,14a6.12,6.12,0,0,0-4.81,2.14,7.78,7.78,0,0,0-1.87,5.31V34.1H440V19.88a6.68,6.68,0,0,0-1.29-4.37A4.38,4.38,0,0,0,435.09,14a6.08,6.08,0,0,0-4.68,2.14,7.66,7.66,0,0,0-1.91,5.31V34.1h-3.84V10.92h3.84v3.17h0a10.15,10.15,0,0,1,2.85-2.41,8.39,8.39,0,0,1,4.19-1.2,7.15,7.15,0,0,1,7,4.63h.05a10.16,10.16,0,0,1,8.29-4.63Z"/><path d="M474.19,10.48a9.36,9.36,0,0,1,6.15,1.91,7.15,7.15,0,0,1,2.5,5.8V34.1H479V31.16h0a9,9,0,0,1-7.36,3.34A8.53,8.53,0,0,1,466,32.72a6.74,6.74,0,0,1-2.45-5.5,6.68,6.68,0,0,1,2.76-5.6,10.78,10.78,0,0,1,6.69-2,15.85,15.85,0,0,1,6,1.11V18.41a4.22,4.22,0,0,0-1.27-3.32A5.09,5.09,0,0,0,474.19,14a8,8,0,0,0-6.64,3.21L465,14.76A10.27,10.27,0,0,1,468.44,12,12.08,12.08,0,0,1,474.19,10.48ZM467.59,27q0,4.05,4.42,4.05a8.47,8.47,0,0,0,5-1.45,4.17,4.17,0,0,0,2-3.32V24.12a12.28,12.28,0,0,0-5.88-1.3,6.76,6.76,0,0,0-3.92,1A3.63,3.63,0,0,0,467.59,27Z"/><path d="M500.63,10.92v3.3h-6.2v11.9a9.55,9.55,0,0,0,.44,3.53A2.73,2.73,0,0,0,497.59,31a8.93,8.93,0,0,0,2.86-.45l.53,3.17a11.76,11.76,0,0,1-4.23.75q-6.15,0-6.16-6.95V14.22H486v-3.3h4.63V3.74h3.84v7.18Z"/><path d="M523.41,30.05a9.82,9.82,0,0,1-3.84,3.12A12.49,12.49,0,0,1,514,34.5a10.23,10.23,0,0,1-7.94-3.38A12.32,12.32,0,0,1,503,22.51a12.23,12.23,0,0,1,3.1-8.71A10.25,10.25,0,0,1,514,10.48a9.44,9.44,0,0,1,7.36,3.16,12.66,12.66,0,0,1,3,8.83v1.42H507a7.37,7.37,0,0,0,1.82,5,7.11,7.11,0,0,0,5.53,2.1A8,8,0,0,0,521,27.64ZM507,20.6h13.41a6.76,6.76,0,0,0-2-4.91A6.17,6.17,0,0,0,513.91,14a6.78,6.78,0,0,0-4.79,1.72A7.35,7.35,0,0,0,507,20.6Z"/><polygon points="18.89 1.22 24.74 1.22 24.74 34.1 18.89 34.1 18.89 20.4 5.86 20.4 5.86 34.1 0 34.1 0 1.22 5.86 1.22 5.86 14.55 18.89 14.55 18.89 1.22"/><polygon points="93.18 21.74 78.96 1.22 74.29 1.22 74.29 34.1 80.15 34.1 80.15 13.48 94.43 34.1 99.03 34.1 99.03 1.22 93.18 1.22 93.18 21.74"/><path d="M123.81.77a16.87,16.87,0,1,0,16.87,16.87A16.87,16.87,0,0,0,123.81.77Zm0,27.88a11,11,0,1,1,11-11A11,11,0,0,1,123.81,28.65Z"/><path d="M164.25,22.11A10.7,10.7,0,0,0,161,1.22H148.58V34.1h5.86V19.47l12.2,14.63h7.61Zm-9.81-5.35V7.08H161a4.84,4.84,0,1,1,0,9.68Z"/><path d="M49.52.77A16.87,16.87,0,1,0,66.39,17.64,16.87,16.87,0,0,0,49.52.77Zm0,27.88a11,11,0,1,1,11-11A11,11,0,0,1,49.52,28.65Z"/><path d="M551.53,17.7H538a5.55,5.55,0,0,1-5.54-5.54V6.85A5.55,5.55,0,0,1,538,1.31h13.5a5.54,5.54,0,0,1,5.54,5.54v5.31A5.54,5.54,0,0,1,551.53,17.7ZM538,2.14a4.72,4.72,0,0,0-4.71,4.71v5.31A4.72,4.72,0,0,0,538,16.87h13.5a4.71,4.71,0,0,0,4.71-4.71V6.85a4.71,4.71,0,0,0-4.71-4.71Z"/><path d="M540.22,14.05a2.71,2.71,0,0,1-1.86-.67,2.76,2.76,0,0,1-.92-1.67h1a2,2,0,0,0,.58,1,1.67,1.67,0,0,0,1.19.44,1.84,1.84,0,0,0,1.33-.49,1.89,1.89,0,0,0,.56-1.44,1.76,1.76,0,0,0-.57-1.4,1.83,1.83,0,0,0-1.25-.43,2.32,2.32,0,0,0-1.66.6h-.93l.46-4.88h4.37V6H539.1l-.28,2.9a2,2,0,0,1,.65-.31,3,3,0,0,1,1-.16,2.71,2.71,0,0,1,2,.76,2.63,2.63,0,0,1,.82,2,2.82,2.82,0,0,1-.82,2.13A3,3,0,0,1,540.22,14.05Z"/><path d="M548.62,14.05a4,4,0,0,1-3-1.24,4.66,4.66,0,0,1-1.17-3.32,4.51,4.51,0,0,1,1.26-3.36,4.17,4.17,0,0,1,3.08-1.19,4.33,4.33,0,0,1,1.76.36,3.55,3.55,0,0,1,1.24.89l-.74.73a3,3,0,0,0-2.31-1,3,3,0,0,0-2.2.93,3.63,3.63,0,0,0-1,2.64,3.72,3.72,0,0,0,.89,2.6,2.87,2.87,0,0,0,2.23,1,4.26,4.26,0,0,0,1.54-.28,1.63,1.63,0,0,0,.87-.63V10.34h-2.39V9.4h3.45v3.2a2.91,2.91,0,0,1-1.31,1A5.32,5.32,0,0,1,548.62,14.05Z"/></g></g></svg>