<?xml version="1.0" encoding="UTF-8"?>
<svg width="259.6472px" height="27.4399px" viewBox="0 0 259.6472 27.4399" version="1.1" xmlns="http://www.w3.org/2000/svg" xmlns:xlink="http://www.w3.org/1999/xlink">
    <title>V2-英</title>
    <g id="V5-6.9" stroke="none" stroke-width="1" fill="none" fill-rule="evenodd">
        <g id="Artboard-3" transform="translate(-314.4934, -215.9537)" fill="#000000">
            <g id="V2-英" transform="translate(314.4934, 215.9537)">
                <polygon id="Fill-463" points="124.7945 0.4479 132.1585 14.2799 132.2145 14.2799 139.6345 0.4479 142.3785 0.4479 142.3785 21.0279 139.8585 21.0279 139.8585 4.8719 139.8025 4.8719 132.8025 18.2279 131.5705 18.2279 124.5425 4.8719 124.4865 4.8719 124.4865 21.0279 121.9665 21.0279 121.9665 0.4479"></polygon>
                <path d="M148.3424,16.5758 C148.3424,17.3598 148.6224,17.9858 149.1824,18.4518 C149.7234,18.8998 150.4704,19.1238 151.4224,19.1238 C152.6544,19.1238 153.6994,18.7878 154.5584,18.1158 C155.4724,17.4068 155.9304,16.4828 155.9304,15.3438 L155.9304,14.5598 C155.0154,14.0558 153.6624,13.7758 151.8704,13.7198 C150.8814,13.7198 150.0694,13.9438 149.4344,14.3918 C148.7064,14.9148 148.3424,15.6428 148.3424,16.5758 M152.5984,5.7398 C154.2404,5.7398 155.5854,6.2068 156.6304,7.1398 C157.7684,8.1478 158.3384,9.5298 158.3384,11.2838 L158.3384,21.0278 L156.0704,21.0278 L156.0704,19.0118 L155.9864,19.0118 C155.5564,19.6278 154.9314,20.1418 154.1104,20.5518 C153.1584,21.0378 152.1034,21.2798 150.9464,21.2798 C149.5274,21.2798 148.3324,20.8698 147.3624,20.0478 C146.3354,19.1898 145.8224,18.0698 145.8224,16.6878 C145.8224,15.1578 146.3914,13.9438 147.5304,13.0478 C148.6314,12.1708 150.0594,11.7318 151.8144,11.7318 C153.2704,11.7318 154.6424,11.9838 155.9304,12.4878 L155.9304,11.3678 C155.9304,10.2298 155.6034,9.3618 154.9504,8.7638 C154.3344,8.2038 153.5314,7.9238 152.5424,7.9238 C150.8064,7.9238 149.3034,8.6518 148.0344,10.1078 L146.4944,8.4838 C147.1844,7.6628 148.0434,7.0098 149.0704,6.5238 C150.1714,6.0018 151.3474,5.7398 152.5984,5.7398" id="Fill-464"></path>
                <path d="M163.9942,13.3839 C163.9942,15.0829 164.4232,16.4359 165.2822,17.4439 C166.1032,18.4149 167.1402,18.8999 168.3902,18.8999 C169.8462,18.8999 171.0032,18.4149 171.8622,17.4439 C172.7022,16.4919 173.1222,15.2229 173.1222,13.6359 C173.1222,11.7879 172.6562,10.3509 171.7222,9.3239 C170.8822,8.3909 169.8182,7.9239 168.5302,7.9239 C167.2422,7.9239 166.1692,8.4379 165.3102,9.4639 C164.4322,10.5089 163.9942,11.8159 163.9942,13.3839 M168.3342,27.4399 C165.8702,27.4399 163.7882,26.6179 162.0902,24.9759 L163.4062,23.1559 C164.8062,24.5559 166.4492,25.2559 168.3342,25.2559 C170.0142,25.2559 171.2462,24.7889 172.0302,23.8559 C172.6462,23.1089 172.9542,22.0819 172.9542,20.7759 L172.9542,18.7879 L172.8702,18.7879 C172.4592,19.4229 171.8622,19.9459 171.0782,20.3559 C170.1632,20.8419 169.1642,21.0839 168.0822,21.0839 C166.2532,21.0839 164.7032,20.4399 163.4342,19.1519 C162.1832,17.8449 161.5302,15.9599 161.4742,13.4959 C161.4742,11.2379 162.1182,9.3799 163.4062,7.9239 C164.6942,6.4679 166.3182,5.7399 168.2782,5.7399 C169.3052,5.7399 170.2852,6.0019 171.2182,6.5239 C172.0392,6.9909 172.6562,7.5509 173.0662,8.2039 L173.0942,8.2039 L173.0942,6.0199 L175.3622,6.0199 L175.3622,20.7759 C175.3622,22.8849 174.7552,24.5179 173.5422,25.6759 C172.3102,26.8519 170.5742,27.4399 168.3342,27.4399" id="Fill-466"></path>
                <path d="M179.8696,21.0273 L182.2776,21.0273 L182.2776,6.0193 L179.8696,6.0193 L179.8696,21.0273 Z M179.4496,2.0993 C179.4496,1.6523 179.5896,1.2693 179.8696,0.9523 C180.1676,0.6163 180.5606,0.4483 181.0456,0.4483 C181.5306,0.4483 181.9326,0.6163 182.2496,0.9523 C182.5296,1.2503 182.6696,1.6333 182.6696,2.0993 C182.6696,2.5293 182.5206,2.9023 182.2216,3.2203 C181.9046,3.5563 181.5126,3.7233 181.0456,3.7233 C180.5976,3.7233 180.2146,3.5563 179.8976,3.2203 C179.5996,2.9023 179.4496,2.5293 179.4496,2.0993 L179.4496,2.0993 Z" id="Fill-468"></path>
                <path d="M193.2535,5.7399 C194.3545,5.7399 195.3995,5.9639 196.3895,6.4119 C197.3225,6.8419 198.0875,7.3919 198.6855,8.0639 L197.1735,9.5759 C196.7435,9.1279 196.2115,8.7549 195.5775,8.4559 C194.8305,8.1019 194.0555,7.9239 193.2535,7.9239 C191.7225,7.9239 190.5185,8.4089 189.6415,9.3799 C188.7635,10.3509 188.3255,11.7139 188.3255,13.4679 C188.3255,15.2229 188.7455,16.5949 189.5855,17.5839 C190.4435,18.5919 191.6385,19.0959 193.1695,19.0959 C194.8495,19.0959 196.3055,18.3399 197.5375,16.8279 L199.0215,18.3119 C198.4985,19.1149 197.7335,19.7959 196.7255,20.3559 C195.5865,20.9719 194.3635,21.2799 193.0575,21.2799 C190.8545,21.2799 189.0905,20.5709 187.7655,19.1519 C186.4585,17.7519 185.8055,15.8579 185.8055,13.4679 C185.8055,11.1719 186.4775,9.3149 187.8215,7.8959 C189.1835,6.4589 190.9945,5.7399 193.2535,5.7399" id="Fill-470"></path>
                <polygon id="Fill-471" points="214.7847 21.028 207.3087 0.448 209.9967 0.448 216.1287 18.06 216.1847 18.06 222.2327 0.448 224.9207 0.448 217.4447 21.028"></polygon>
                <path d="M226.6846,21.028 L226.6846,18.9 L233.3486,10.892 C234.4126,9.604 235.0936,8.708 235.3926,8.204 C235.9526,7.271 236.2326,6.338 236.2326,5.404 C236.2326,4.321 235.8966,3.5 235.2246,2.94 C234.6086,2.436 233.7686,2.184 232.7046,2.184 C230.4826,2.278 229.1576,3.314 228.7286,5.292 L226.2366,5.292 C226.4976,3.668 227.2536,2.371 228.5046,1.4 C229.6996,0.467 231.1266,0 232.7886,0 C234.5246,0 235.9346,0.458 237.0166,1.372 C238.1736,2.343 238.7526,3.687 238.7526,5.404 C238.6966,6.954 238.2106,8.325 237.2966,9.52 C236.4006,10.715 235.4576,11.863 234.4686,12.964 L229.6246,18.872 L229.6246,18.9 L239.0606,18.9 L239.0606,21.028 L226.6846,21.028 Z" id="Fill-472"></path>
                <polygon id="Fill-473" points="11.863 0.3753 15.542 0.3753 15.542 21.0253 11.863 21.0253 11.863 12.4233 3.678 12.4233 3.678 21.0253 0 21.0253 0 0.3753 3.678 0.3753 3.678 8.7453 11.863 8.7453"></polygon>
                <polygon id="Fill-474" points="58.5241 13.2628 49.5931 0.3758 46.6611 0.3758 46.6611 21.0248 50.3391 21.0248 50.3391 8.0758 59.3131 21.0248 62.2021 21.0248 62.2021 0.3758 58.5241 0.3758"></polygon>
                <path d="M77.7618,17.602 C73.9418,17.602 70.8458,14.506 70.8458,10.686 C70.8458,6.866 73.9418,3.77 77.7618,3.77 C81.5818,3.77 84.6778,6.866 84.6778,10.686 C84.6778,14.506 81.5818,17.602 77.7618,17.602 M77.7618,0.092 C71.9108,0.092 67.1668,4.835 67.1668,10.686 C67.1668,16.537 71.9108,21.28 77.7618,21.28 C83.6128,21.28 88.3568,16.537 88.3568,10.686 C88.3568,4.835 83.6128,0.092 77.7618,0.092" id="Fill-475"></path>
                <path d="M96.9998,10.1357 L96.9998,4.0537 L101.0958,4.0537 C102.7748,4.0537 104.1358,5.4147 104.1358,7.0947 C104.1358,8.7737 102.7738,10.1357 101.0948,10.1357 L96.9998,10.1357 Z M103.1648,13.4967 C105.8768,12.6327 107.8418,10.0927 107.8418,7.0947 C107.8418,3.3897 104.8428,0.3857 101.1408,0.3757 L101.1408,0.3757 L93.3218,0.3757 L93.3218,21.0257 L96.9998,21.0257 L96.9998,11.8357 L104.6628,21.0257 L109.4428,21.0257 L103.1648,13.4967 Z" id="Fill-476"></path>
                <path d="M31.1013,17.602 C27.2813,17.602 24.1853,14.506 24.1853,10.686 C24.1853,6.866 27.2813,3.77 31.1013,3.77 C34.9213,3.77 38.0173,6.866 38.0173,10.686 C38.0173,14.506 34.9213,17.602 31.1013,17.602 M31.1013,0.092 C25.2503,0.092 20.5063,4.835 20.5063,10.686 C20.5063,16.537 25.2503,21.28 31.1013,21.28 C36.9523,21.28 41.6953,16.537 41.6953,10.686 C41.6953,4.835 36.9523,0.092 31.1013,0.092" id="Fill-477"></path>
                <path d="M247.6872,0.9579 C246.0562,0.9579 244.7292,2.2849 244.7292,3.9159 L244.7292,7.2509 C244.7292,8.8819 246.0562,10.2089 247.6872,10.2089 L256.1652,10.2089 C257.7962,10.2089 259.1232,8.8819 259.1232,7.2509 L259.1232,3.9159 C259.1232,2.2849 257.7962,0.9579 256.1652,0.9579 L247.6872,0.9579 Z M256.1652,10.7329 L247.6872,10.7329 C245.7672,10.7329 244.2052,9.1709 244.2052,7.2509 L244.2052,3.9159 C244.2052,1.9959 245.7672,0.4339 247.6872,0.4339 L256.1652,0.4339 C258.0852,0.4339 259.6472,1.9959 259.6472,3.9159 L259.6472,7.2509 C259.6472,9.1709 258.0852,10.7329 256.1652,10.7329 L256.1652,10.7329 Z" id="Fill-478"></path>
                <path d="M248.9952,8.4709 C248.5412,8.4709 248.1562,8.3299 247.8392,8.0479 C247.5222,7.7709 247.3352,7.4109 247.2802,6.9679 L247.9302,6.9679 C247.9802,7.2289 248.0992,7.4439 248.2852,7.6099 C248.4812,7.7909 248.7252,7.8819 249.0172,7.8819 C249.3502,7.8819 249.6202,7.7759 249.8262,7.5639 C250.0422,7.3429 250.1512,7.0459 250.1512,6.6729 C250.1512,6.2799 250.0352,5.9779 249.8032,5.7659 C249.6012,5.5799 249.3502,5.4869 249.0482,5.4869 C248.6452,5.4869 248.3102,5.6129 248.0432,5.8649 L247.4612,5.8649 L247.7482,2.7969 L250.4532,2.7969 L250.4532,3.3709 L248.3232,3.3709 L248.1412,5.1919 C248.3932,4.9959 248.7202,4.8969 249.1232,4.8969 C249.5972,4.8969 249.9972,5.0589 250.3252,5.3809 C250.6622,5.7139 250.8302,6.1339 250.8302,6.6429 C250.8302,7.2019 250.6642,7.6469 250.3322,7.9799 C250.0052,8.3069 249.5592,8.4709 248.9952,8.4709" id="Fill-479"></path>
                <path d="M254.2984,8.4181 C253.4824,8.4181 252.8254,8.1581 252.3264,7.6401 C251.8284,7.1211 251.5784,6.4261 251.5784,5.5551 C251.5784,4.6681 251.8454,3.9681 252.3794,3.4541 C252.8884,2.9661 253.5554,2.7211 254.3814,2.7211 C254.8094,2.7211 255.1994,2.7971 255.5524,2.9481 C255.8754,3.0841 256.1364,3.2711 256.3384,3.5071 L255.8774,3.9681 C255.6964,3.7721 255.4924,3.6231 255.2654,3.5221 C254.9984,3.4011 254.6944,3.3411 254.3514,3.3411 C253.7674,3.3411 253.2834,3.5301 252.9014,3.9081 C252.4874,4.3151 252.2814,4.8651 252.2814,5.5551 C252.2814,6.2301 252.4704,6.7731 252.8484,7.1871 C253.2254,7.5941 253.7164,7.7981 254.3214,7.7981 C254.7034,7.7981 255.0484,7.7401 255.3564,7.6251 C255.6384,7.5191 255.8214,7.3881 255.9074,7.2311 L255.9074,6.0841 L254.4044,6.0841 L254.4044,5.4941 L256.5724,5.4941 L256.5724,7.5031 C256.3964,7.7661 256.1194,7.9801 255.7414,8.1461 C255.3234,8.3271 254.8424,8.4181 254.2984,8.4181" id="Fill-480"></path>
            </g>
        </g>
    </g>
</svg>