<svg xmlns="http://www.w3.org/2000/svg" viewBox="0 0 350.88 44"><defs><style>.cls-1{fill:#fff;fill-opacity:0;}</style></defs><g id="图层_2" data-name="图层 2"><g id="图层_1-2" data-name="图层 1"><rect id="矩形" class="cls-1" width="350.88" height="44"/><path d="M203.16,35.58V1.4h12.46q5.44,0,8.47,2.23c2.32,1.73,3.49,4.42,3.49,8s-1.17,6.39-3.49,8.19a12.21,12.21,0,0,1-7.68,2.23h-9.07V35.58Zm4.18-17.12H216q7.26,0,7.26-6.74a6.41,6.41,0,0,0-2-5.12A7.9,7.9,0,0,0,216,5h-8.65Z"/><path d="M242.27,10.19a9.69,9.69,0,0,1,6.7,2.32,8.73,8.73,0,0,1,2.84,6.88V35.58H248V32.23h-.14a8,8,0,0,1-3.11,2.56A11.41,11.41,0,0,1,239.53,36a8.86,8.86,0,0,1-5.95-2A6.9,6.9,0,0,1,231,28.37a7.25,7.25,0,0,1,2.84-6A11,11,0,0,1,241,20.14a18.75,18.75,0,0,1,6.84,1.25V19.53a5.54,5.54,0,0,0-1.63-4.32,5.72,5.72,0,0,0-4-1.4,9.65,9.65,0,0,0-7.49,3.63l-2.56-2.7a12.51,12.51,0,0,1,4.28-3.25A13.49,13.49,0,0,1,242.27,10.19Zm-7.07,18a3.84,3.84,0,0,0,1.4,3.11,5.64,5.64,0,0,0,3.72,1.12,8.18,8.18,0,0,0,5.21-1.68,5.54,5.54,0,0,0,2.28-4.6v-1.3a15.27,15.27,0,0,0-6.75-1.4,6.79,6.79,0,0,0-4,1.12A4.22,4.22,0,0,0,235.2,28.19Z"/><path d="M280.32,35.58h-3.77V32h-.14a8.43,8.43,0,0,1-3.3,2.79A10,10,0,0,1,268.37,36a10.45,10.45,0,0,1-8-3.26Q257,29.17,257,22.93a12.88,12.88,0,0,1,3.53-9.44,10.75,10.75,0,0,1,8-3.3,10.33,10.33,0,0,1,4.88,1.2,6.81,6.81,0,0,1,2.79,2.47h.14V0h4ZM261.2,22.88a10.5,10.5,0,0,0,2.19,6.93,6.64,6.64,0,0,0,5.39,2.56,7.11,7.11,0,0,0,5.63-2.6,9.6,9.6,0,0,0,2.19-6.47,10.13,10.13,0,0,0-2.42-7.16,7.3,7.3,0,0,0-10.74.05A9.58,9.58,0,0,0,261.2,22.88Z"/><path d="M296.64,35.58l11.31-18L297.57,1.4h4.7l8.33,13.16L318.74,1.4h4.55L312.88,17.58l11.48,18h-4.74l-9.21-15-9.25,15Z"/><path d="M339,35.58h-4.56l8.79-14.84,0,0Q341.62,22,337.81,22a9.67,9.67,0,0,1-7.26-2.93,10.4,10.4,0,0,1-2.88-7.54,10.42,10.42,0,0,1,3.25-7.86,11,11,0,0,1,7.91-3,10.8,10.8,0,0,1,8.05,3.12,10.68,10.68,0,0,1,3,7.81,17.22,17.22,0,0,1-1.58,6.56c-.65,1.55-1.93,4-3.82,7.44Zm-7.12-24.23a7.28,7.28,0,0,0,1.77,5.16,6.2,6.2,0,0,0,4.79,1.86,7.58,7.58,0,0,0,5.3-1.81,6.61,6.61,0,0,0,2.05-5.17,7.19,7.19,0,0,0-1.86-5.25A6.57,6.57,0,0,0,339,4.28a7,7,0,0,0-5.07,1.81A6.83,6.83,0,0,0,331.85,11.35Z"/><polygon points="19.7 1.27 25.82 1.27 25.82 35.58 19.7 35.58 19.7 21.29 6.11 21.29 6.11 35.58 0 35.58 0 1.27 6.11 1.27 6.11 15.18 19.7 15.18 19.7 1.27"/><polygon points="97.22 22.68 82.38 1.27 77.51 1.27 77.51 35.58 83.62 35.58 83.62 14.06 98.53 35.58 103.33 35.58 103.33 1.27 97.22 1.27 97.22 22.68"/><path d="M129.17.8a17.6,17.6,0,1,0,17.6,17.6A17.6,17.6,0,0,0,129.17.8Zm0,29.09A11.49,11.49,0,1,1,140.66,18.4,11.49,11.49,0,0,1,129.17,29.89Z"/><path d="M171.37,23.07A11.16,11.16,0,0,0,168,1.27H155V35.58h6.11V20.31l12.73,15.27h7.94Zm-10.24-5.58V7.38h6.8a5.06,5.06,0,0,1,0,10.11Z"/><path d="M51.66.8a17.6,17.6,0,1,0,17.6,17.6A17.6,17.6,0,0,0,51.66.8Zm0,29.09A11.49,11.49,0,1,1,63.15,18.4,11.49,11.49,0,0,1,51.66,29.89Z"/></g></g></svg>